# xmcd CD database file
#
# Track frame offsets:
#	150
#	16733
#	26884
#	43160
#	58969
#	70454
#	80928
#	100048
#	118189
#	133632
#	145854
#
# Disc length: 2175 seconds
#
# Revision: 0
# Processed by: cddbd v1.5.2PL0 Copyright (c) Steve Scherf et al.
# Submitted via: CDex 1.70beta2
#
DISCID=a4087d0b
DTITLE=Enigma - The Platinum Collection (The Lost One) Disc 3
DYEAR=2009
DGENRE=New Age
TTITLE0=Lost One
TTITLE1=Lost Two
TTITLE2=Lost Three
TTITLE3=Lost Four
TTITLE4=Lost Five
TTITLE5=Lost Six
TTITLE6=Lost Seven
TTITLE7=Lost Eight
TTITLE8=Lost Nine
TTITLE9=Lost Ten
TTITLE10=Lost Eleven
EXTD=YEAR: 2009
EXTT0=
EXTT1=
EXTT2=
EXTT3=
EXTT4=
EXTT5=
EXTT6=
EXTT7=
EXTT8=
EXTT9=
EXTT10=
PLAYORDER=
